<?xml version="1.0" encoding="UTF-8" standalone="no"?>
<!-- Generator: Adobe Illustrator 14.0.0, SVG Export Plug-In . SVG Version: 6.00 Build 43363)  -->

<svg
   xmlns:dc="http://purl.org/dc/elements/1.1/"
   xmlns:cc="http://creativecommons.org/ns#"
   xmlns:rdf="http://www.w3.org/1999/02/22-rdf-syntax-ns#"
   xmlns:svg="http://www.w3.org/2000/svg"
   xmlns="http://www.w3.org/2000/svg"
   xmlns:sodipodi="http://sodipodi.sourceforge.net/DTD/sodipodi-0.dtd"
   xmlns:inkscape="http://www.inkscape.org/namespaces/inkscape"
   version="1.0"
   id="Layer_1"
   x="0px"
   y="0px"
   width="100px"
   height="69.518px"
   viewBox="0 0 100 69.518"
   enable-background="new 0 0 100 69.518"
   xml:space="preserve"
   inkscape:version="0.48.4 r9939"
   sodipodi:docname="noun_project_498.svg"><metadata
   id="metadata3001"><rdf:RDF><cc:Work
       rdf:about=""><dc:format>image/svg+xml</dc:format><dc:type
         rdf:resource="http://purl.org/dc/dcmitype/StillImage" /><dc:title></dc:title></cc:Work></rdf:RDF></metadata><defs
   id="defs2999" /><sodipodi:namedview
   pagecolor="#ffffff"
   bordercolor="#666666"
   borderopacity="1"
   objecttolerance="10"
   gridtolerance="10"
   guidetolerance="10"
   inkscape:pageopacity="0"
   inkscape:pageshadow="2"
   inkscape:window-width="1680"
   inkscape:window-height="988"
   id="namedview2997"
   showgrid="false"
   inkscape:zoom="7.3649992"
   inkscape:cx="50"
   inkscape:cy="34.758999"
   inkscape:window-x="-8"
   inkscape:window-y="-8"
   inkscape:window-maximized="1"
   inkscape:current-layer="Layer_1" />
<path
   d="M10.187,45.956l-6.436-4.34c0,0,26.712-7.968,43.114-7.968c11.254,0,20.963-3.163,17.224-9.721  c-3.751-6.559-3.751-24.824,11.241-23.893c0,0,10.322,0,11.254,9.832c0,0-0.821,3.629,12.773,6.448c0,0,2.33,1.397-1.888,3.286  c0,0-20.619-1.422-18.731,3.739c0,0-0.466,4.475,6.436,7.147c11.83,4.573,23.672,42.416-25.657,38.787  c0,0-19.333-0.821-34.791-9.733c0,0-17.702-8.066-24.726-9.955L10.187,45.956z"
   id="path2995" />
<path
   style="fill:#ffffff;fill-opacity:1"
   d="M 61.541074,69.329751 C 53.265645,68.790026 46.940526,67.745282 40.224032,65.808732 35.08238,64.326252 31.504477,62.923819 26.802691,60.547956 20.503704,57.365012 6.4072356,51.464668 1.6972115,50.039583 1.0064443,49.830581 0.44127114,49.625742 0.44127114,49.584384 c 0,-0.04136 2.14354316,-0.836961 4.76342926,-1.768008 C 9.9540283,46.128574 10.33434,45.98169 10.213307,45.881963 10.178131,45.852978 8.8051552,44.924268 7.1622494,43.818161 5.5193436,42.712053 4.1281757,41.765922 4.0707652,41.715645 3.9083413,41.573404 10.603131,39.754437 16.259331,38.404027 29.356555,35.27708 39.845365,33.699936 47.543929,33.699936 c 5.736557,0 11.56488,-1.155832 14.442729,-2.864179 2.850416,-1.692064 3.583327,-3.729756 2.342963,-6.514079 -0.998603,-2.24163 -1.195635,-2.776276 -1.569696,-4.259385 -0.998189,-3.957698 -0.850398,-8.371228 0.404387,-12.076413 1.39497,-4.1191292 4.253758,-6.7626168 8.255719,-7.63396647 1.523341,-0.33167791 4.595213,-0.30329331 6.218723,0.057462 5.176287,1.15020704 8.228608,4.33372144 8.822397,9.20159964 0.05388,0.4417308 0.210167,1.0256758 0.347298,1.2976558 0.873586,1.732633 5.150894,3.771265 10.509954,5.009208 1.045485,0.241507 2.013466,0.537131 2.151069,0.656942 0.856308,0.745585 0.381363,1.628356 -1.404955,2.611388 l -0.611661,0.336603 -2.91855,-0.101043 c -3.027005,-0.104798 -7.910048,0.04177 -9.904979,0.297313 -2.825768,0.361963 -4.801538,0.998522 -5.529988,1.781664 -0.494629,0.531766 -0.591628,0.969914 -0.453818,2.049928 0.215488,1.68879 0.709961,2.787261 1.783358,3.961727 0.997609,1.091544 2.159999,1.876223 4.137441,2.793005 2.278098,1.056174 3.005759,1.554502 4.537554,3.107478 3.851185,3.90444 6.383616,10.255595 6.380734,16.002425 -0.0037,7.287522 -3.643667,12.956602 -10.502374,16.356758 -3.27244,1.62229 -6.851304,2.617911 -11.651005,3.24125 -1.610906,0.209208 -3.096036,0.281123 -6.562728,0.317789 -2.464358,0.02606 -4.816701,0.02547 -5.227427,-0.0014 l 0,4.2e-5 z"
   id="path3003"
   inkscape:connector-curvature="0" /></svg>