<?xml version="1.0" encoding="UTF-8" standalone="no"?>
<svg
   xmlns:dc="http://purl.org/dc/elements/1.1/"
   xmlns:cc="http://creativecommons.org/ns#"
   xmlns:rdf="http://www.w3.org/1999/02/22-rdf-syntax-ns#"
   xmlns:svg="http://www.w3.org/2000/svg"
   xmlns="http://www.w3.org/2000/svg"
   xmlns:sodipodi="http://sodipodi.sourceforge.net/DTD/sodipodi-0.dtd"
   xmlns:inkscape="http://www.inkscape.org/namespaces/inkscape"
   version="1.1"
   id="Layer_1"
   x="0px"
   y="0px"
   width="100px"
   height="100px"
   viewBox="0 0 100 100"
   enable-background="new 0 0 100 100"
   xml:space="preserve"
   inkscape:version="0.48.4 r9939"
   sodipodi:docname="noun_project_1170.svg"><metadata
   id="metadata3057"><rdf:RDF><cc:Work
       rdf:about=""><dc:format>image/svg+xml</dc:format><dc:type
         rdf:resource="http://purl.org/dc/dcmitype/StillImage" /><dc:title></dc:title></cc:Work></rdf:RDF></metadata><defs
   id="defs3055" /><sodipodi:namedview
   pagecolor="#ffffff"
   bordercolor="#666666"
   borderopacity="1"
   objecttolerance="10"
   gridtolerance="10"
   guidetolerance="10"
   inkscape:pageopacity="0"
   inkscape:pageshadow="2"
   inkscape:window-width="1680"
   inkscape:window-height="988"
   id="namedview3053"
   showgrid="false"
   inkscape:zoom="2.36"
   inkscape:cx="50"
   inkscape:cy="50"
   inkscape:window-x="-8"
   inkscape:window-y="-8"
   inkscape:window-maximized="1"
   inkscape:current-layer="Layer_1" />
<path
   d="M69.172,11.265c-0.191-0.192-0.502-0.192-0.695,0L11.639,68.029c-0.192,0.191-0.192,0.501,0,0.692l19.207,19.184  c0.096,0.095,0.222,0.143,0.348,0.143c0.125,0,0.251-0.048,0.347-0.143L88.38,31.14c0.093-0.092,0.145-0.216,0.145-0.347  s-0.052-0.255-0.145-0.347L69.172,11.265z"
   id="path3047" />
<path
   d="M96.846,9.12l-6.319-6.311C88.713,0.998,86.301,0,83.735,0c-2.564,0-4.977,0.998-6.79,2.809L70.626,9.12  c-0.093,0.092-0.145,0.216-0.145,0.347c0,0.13,0.052,0.254,0.145,0.346l19.207,19.182c0.092,0.092,0.218,0.144,0.348,0.144  c0.131,0,0.255-0.052,0.346-0.144l6.319-6.311c1.814-1.812,2.813-4.22,2.813-6.783C99.659,13.34,98.66,10.932,96.846,9.12z"
   id="path3049" />
<path
   d="M10.358,69.967c-0.122-0.121-0.296-0.172-0.464-0.129c-0.167,0.04-0.3,0.165-0.351,0.33l-9.18,29.195  c-0.055,0.178-0.006,0.369,0.127,0.498C0.584,99.952,0.707,100,0.832,100c0.054,0,0.11-0.011,0.164-0.029l28.387-10.012  c0.159-0.056,0.278-0.188,0.315-0.354c0.037-0.164-0.012-0.337-0.132-0.455L10.358,69.967z"
   id="path3051" />
<path
   style="fill:#ffffff;fill-opacity:1"
   d="M 21.398703,78.051246 11.657184,68.302814 40.043508,39.914119 C 55.655987,24.300337 68.622631,11.525424 68.85828,11.525424 c 0.235644,0 4.716224,4.290961 9.956847,9.535469 l 9.528407,9.535469 -28.601657,28.601655 -28.601656,28.601657 -9.741518,-9.748428 0,0 z"
   id="path3059"
   inkscape:connector-curvature="0" /><path
   style="fill:#ffffff;fill-opacity:1"
   d="M 80.293156,19.133904 70.550847,9.3695021 74.47,5.5531017 c 2.155535,-2.0990205 4.634348,-4.117801 5.508475,-4.4861791 2.056597,-0.86669946 5.387728,-0.85467163 7.480576,0.027011 2.205563,0.9291673 9.749653,8.378535 10.907705,10.7707498 1.134378,2.343314 1.191283,5.66967 0.135069,7.895475 -0.7084,1.492842 -7.563184,9.138147 -8.193268,9.138147 -0.150201,0 -4.657132,-4.39398 -10.015401,-9.764401 z"
   id="path3061"
   inkscape:connector-curvature="0" /><path
   style="fill:#ffffff;fill-opacity:1"
   d="M 1.0723317,97.860169 C 1.4007719,96.869703 3.4937594,90.25243 5.7234148,83.155118 7.9530708,76.057806 9.8266199,70.201629 9.8868581,70.141391 c 0.060238,-0.06024 4.4776769,4.261729 9.8165319,9.604372 5.338854,5.342642 9.620389,9.795866 9.514521,9.896053 -0.256772,0.242992 -27.9732098,10.019201 -28.40534367,10.019201 -0.18556975,0 -0.0686758,-0.810381 0.25976437,-1.800848 z"
   id="path3063"
   inkscape:connector-curvature="0" /></svg>