<?xml version="1.0" encoding="UTF-8" standalone="no"?>
<!-- Generator: Adobe Illustrator 14.0.0, SVG Export Plug-In . SVG Version: 6.00 Build 43363)  -->

<svg
   xmlns:dc="http://purl.org/dc/elements/1.1/"
   xmlns:cc="http://creativecommons.org/ns#"
   xmlns:rdf="http://www.w3.org/1999/02/22-rdf-syntax-ns#"
   xmlns:svg="http://www.w3.org/2000/svg"
   xmlns="http://www.w3.org/2000/svg"
   xmlns:sodipodi="http://sodipodi.sourceforge.net/DTD/sodipodi-0.dtd"
   xmlns:inkscape="http://www.inkscape.org/namespaces/inkscape"
   version="1.0"
   id="Layer_1"
   x="0px"
   y="0px"
   width="100px"
   height="81.03px"
   viewBox="0 0 100 81.03"
   enable-background="new 0 0 100 81.03"
   xml:space="preserve"
   inkscape:version="0.48.4 r9939"
   sodipodi:docname="noun_project_656.svg"><metadata
   id="metadata3025"><rdf:RDF><cc:Work
       rdf:about=""><dc:format>image/svg+xml</dc:format><dc:type
         rdf:resource="http://purl.org/dc/dcmitype/StillImage" /><dc:title></dc:title></cc:Work></rdf:RDF></metadata><defs
   id="defs3023" /><sodipodi:namedview
   pagecolor="#ffffff"
   bordercolor="#666666"
   borderopacity="1"
   objecttolerance="10"
   gridtolerance="10"
   guidetolerance="10"
   inkscape:pageopacity="0"
   inkscape:pageshadow="2"
   inkscape:window-width="1680"
   inkscape:window-height="988"
   id="namedview3021"
   showgrid="false"
   inkscape:zoom="2.9125016"
   inkscape:cx="50"
   inkscape:cy="40.514999"
   inkscape:window-x="-8"
   inkscape:window-y="-8"
   inkscape:window-maximized="1"
   inkscape:current-layer="Layer_1" />
<path
   d="M99.121,49.847c-1.146-3.335-2.189-5.107-3.023-7.923c-0.162-0.548-4.629-12.941-24.168-24.312  c-3.25-1.89-15.752-5.482-18.579-6.537c-0.771-0.386-1.257-0.917-1.464-1.089c-1.924-1.599-4.757-5.829-7.385-7.347  c-3.692-2.132-6.283-2.36-9.021-2.55c-2.328-0.163-6.326-0.265-10.218,1.243c-3.896,1.504-5.012,4.348-5.112,5.287L19.922,8.25  c0.634,0.57,1.056,1.57,1.056,2.491c0,0.894-0.542,1.801-0.542,3.009c0,1.544,0.609,4.153,3.257,6.356  c3.03,2.516,7.017,3.881,10.472,5.703c0.05,0.032,0.125,0.058,0.19,0.115c3.573,3.009,1.073,6.684,1.073,6.684l-19.897-8.495  c-6.451-3.264-11.55-1.598-14.862,3.313c-0.243,0.36-0.315,0.469-0.576,0.912c-0.154,0.263-0.108,0.622,0.078,0.773  c0.247,0.2,0.616,0.053,0.756-0.124c2.415-3.048,7.437-3.462,10.152-1.581c0.142,0.099,0.286,0.205,0.426,0.313  c0.47,1.78,0.11,1.329,1.096,5.069c0.594,2.235,2.587,3.904,2.587,3.904s15.531,14.655,17.11,16.104  c2.284,2.096,7.177,3.075,11.283,1.595c1.634-0.589,5.276-2.347,8.801-3.553c0.928-0.318,1.417-0.123,2.005,0.513  c0.891,0.966,1.535,1.606,3.49,3.61c0.459,0.471,0.562,1.173,0,1.784l-9.699,11.007l-0.065,0.063  c-3.071,3.234-2.887,6.422-1.968,9.515c0.368,1.238,1.281,2.755,2.209,3.556c0.234,0.207,0.436,0.154,0.615,0.056  c0.204-0.157,0.162-0.507,0.101-0.688c-1.352-4.014-0.391-7.268,3.02-8.905c1.6,0.914,3.764,2.157,4.451,2.557  c1.784,1.038,4.329,0.541,5.405,0.255c3.258-0.861,17.752-4.652,17.752-4.652c11.187-3.19,13.014-9.994,15.895-13.47  c0.036-0.047,0.073-0.092,0.106-0.137c1.545,0.303,2.348,0.371,3.317-0.426C100.789,54.018,99.746,51.515,99.121,49.847z   M32.209,13.161c1.981,1.157,4.97,0.958,4.97,0.958s-0.739,2.135-3.401,3.397c-1.376,0.656-3.083,1.143-5.781,1.065  c-1.776-0.051-3.356-1.002-4.12-2.156c-0.94-1.408-1.092-3.101-1.092-3.101s0.886-0.104,2.021-0.63  c1.139-0.528,1.487-2.7,1.432-3.741c-0.985-0.101-2.373-0.093-3.805,0.134c0,0,0.152-2.254,2.074-2.747  c1.672-0.429,1.665,0.499,3.577,0.485c0.113-0.001,0.31-0.002,0.437-0.003c0.421-0.003,0.96-0.136,1.267-0.238  c1.285-0.421,1.881-0.72,3.456-0.657c1.921,0.076,4.154,0.434,4.946,3.168c-2.289-0.337-4.426-0.488-7.604-0.199  C30.562,10.206,30.231,12.005,32.209,13.161z"
   id="path3017" />
<path
   d="M25.856,13.342c-0.262,0.098-0.436,0.488-0.413,0.755c0.1,1.148,0.452,2.272,1.726,2.387  c1.438,0.137,1.993-1.066,1.917-2.401c-0.007-0.071-0.032-0.368-0.174-0.465C27.54,12.565,26.328,13.163,25.856,13.342z"
   id="path3019" />
<path
   style="fill:#ffffff;fill-opacity:1"
   d="m 47.695043,79.785042 c -1.825005,-2.468449 -2.36371,-6.908965 -1.131251,-9.324785 0.376179,-0.73737 3.072624,-4.049406 5.992104,-7.360075 2.919476,-3.310673 5.466053,-6.314465 5.659056,-6.675097 0.277991,-0.51943 0.150403,-0.931419 -0.613947,-1.982464 -1.33752,-1.839206 -3.698281,-3.901876 -4.465762,-3.901876 -0.35178,0 -2.707556,0.847739 -5.23506,1.883865 -5.835791,2.392328 -7.784267,2.80075 -10.719493,2.246914 C 35.967609,54.442631 34.430446,53.921715 33.764777,53.513928 32.679331,52.848994 18.747074,39.961334 15.046508,36.199098 13.187591,34.3092 13.136434,34.183188 11.719644,28.004183 11.373396,26.494101 7.0383228,25.64378 4.3001873,26.548862 3.6582742,26.761045 2.5434333,27.39458 1.8227628,27.95672 1.1020924,28.518859 0.42908935,28.895427 0.32720062,28.793538 -0.01279353,28.453544 2.323738,25.557465 3.7678068,24.528983 c 2.0442856,-1.455964 3.7288007,-1.911311 6.3666282,-1.720984 1.97219,0.142299 3.768719,0.806812 13.733011,5.079667 10.86608,4.659556 11.488366,4.882618 11.931322,4.276836 0.257034,-0.351513 0.467334,-1.447514 0.467334,-2.435558 0,-2.566683 -0.925243,-3.507158 -5.907357,-6.004616 -4.474403,-2.24295 -6.30896,-3.446902 -7.580208,-4.97461 -1.819761,-2.18688 -2.391599,-4.157444 -1.889546,-6.511415 0.267837,-1.255804 0.222784,-1.893316 -0.214768,-3.039029 -0.816821,-2.138816 -0.418692,-3.4667425 1.659716,-5.5358432 1.473193,-1.466595 2.168954,-1.8650166 4.490108,-2.5712221 4.854958,-1.47710882 12.252913,-0.99819979 16.394343,1.0612934 0.817503,0.4065353 3.272441,2.5623178 5.579894,4.899933 l 4.120169,4.1740269 7.033614,2.231758 c 3.868489,1.227467 8.32017,2.801631 9.892629,3.498142 5.314624,2.354081 13.015382,8.014047 17.747156,13.043951 5.192688,5.519859 6.915949,8.347226 9.946968,16.320069 2.172957,5.715778 2.48627,6.972007 2.03328,8.152477 -0.314053,0.818406 -1.869819,1.497798 -3.04852,1.331264 -0.958592,-0.135433 -1.149126,0.03911 -2.74678,2.516212 -3.2644,5.061333 -6.805102,8.187913 -11.270967,9.952715 -1.165771,0.460683 -6.523015,2.002262 -11.904986,3.425726 -11.647897,3.080729 -12.174201,3.108578 -16.035662,0.848432 -2.71253,-1.587663 -2.967067,-1.576913 -4.609604,0.194736 -1.245675,1.343591 -1.798492,3.264613 -1.52745,5.307832 0.122781,0.925576 0.311454,1.912744 0.419269,2.193706 0.328824,0.856906 -0.391458,0.569733 -1.152357,-0.45944 l 0,0 z M 32.523881,18.207647 c 1.780392,-0.612908 3.731368,-2.014758 4.279707,-3.075132 0.682664,-1.32013 0.675207,-1.329947 -1.010578,-1.329947 -3.019197,0 -5.020467,-1.482687 -5.020467,-3.719528 l 0,-1.1633017 3.776822,0.129272 c 4.079314,0.1396261 4.30716,0.026822 3.084757,-1.5272118 C 36.627163,6.241656 34.903414,5.7839855 32.197807,6.078407 30.941809,6.2150833 28.60087,6.3549964 26.995721,6.3893249 c -1.60515,0.034329 -3.119471,0.094035 -3.365158,0.1326812 -0.372426,0.058581 -1.441707,2.0146375 -1.441707,2.6373424 0,0.1021356 0.849785,0.085826 1.888411,-0.036245 l 1.888411,-0.2219456 0,1.0310116 c 0,1.3378753 -1.110824,2.7281253 -2.407326,3.0128843 -0.902932,0.198317 -1.000175,0.334906 -0.813212,1.142241 0.35051,1.513554 1.300838,2.928635 2.517345,3.748438 0.927182,0.624828 1.623951,0.773699 3.621187,0.773699 1.360202,0 2.998296,-0.180803 3.640209,-0.401785 z"
   id="path3027"
   inkscape:connector-curvature="0" /><path
   style="fill:#ffffff;fill-opacity:1"
   d=""
   id="path3029"
   inkscape:connector-curvature="0" /><path
   style="fill:#ffffff;fill-opacity:1"
   d="m 26.156821,15.442908 c -0.748118,-1.068089 -0.668219,-1.594132 0.309814,-2.039753 1.097164,-0.499902 2.686826,0.408232 2.353159,1.344301 -0.580528,1.628619 -1.78841,1.944065 -2.662973,0.695452 z"
   id="path3031"
   inkscape:connector-curvature="0" /></svg>