<?xml version="1.0" encoding="UTF-8" standalone="no"?>
<svg
   xmlns:dc="http://purl.org/dc/elements/1.1/"
   xmlns:cc="http://creativecommons.org/ns#"
   xmlns:rdf="http://www.w3.org/1999/02/22-rdf-syntax-ns#"
   xmlns:svg="http://www.w3.org/2000/svg"
   xmlns="http://www.w3.org/2000/svg"
   xmlns:sodipodi="http://sodipodi.sourceforge.net/DTD/sodipodi-0.dtd"
   xmlns:inkscape="http://www.inkscape.org/namespaces/inkscape"
   version="1.1"
   x="0px"
   y="0px"
   width="100px"
   height="100px"
   viewBox="0 0 100 100"
   enable-background="new 0 0 100 100"
   xml:space="preserve"
   id="svg3111"
   inkscape:version="0.48.4 r9939"
   sodipodi:docname="television.svg"><metadata
   id="metadata3137"><rdf:RDF><cc:Work
       rdf:about=""><dc:format>image/svg+xml</dc:format><dc:type
         rdf:resource="http://purl.org/dc/dcmitype/StillImage" /><dc:title></dc:title></cc:Work></rdf:RDF></metadata><defs
   id="defs3135" /><sodipodi:namedview
   pagecolor="#ffffff"
   bordercolor="#666666"
   borderopacity="1"
   objecttolerance="10"
   gridtolerance="10"
   guidetolerance="10"
   inkscape:pageopacity="0"
   inkscape:pageshadow="2"
   inkscape:window-width="1680"
   inkscape:window-height="988"
   id="namedview3133"
   showgrid="false"
   inkscape:zoom="7.42"
   inkscape:cx="45.735811"
   inkscape:cy="57.797736"
   inkscape:window-x="-8"
   inkscape:window-y="-8"
   inkscape:window-maximized="1"
   inkscape:current-layer="svg3111" />
<g
   id="Captions">
</g>
<g
   id="Your_Icon">
	<path
   d="M90.302,38H9.698C7.7,38,6,39.697,6,41.696v51.671C6,95.365,7.7,97,9.698,97h80.604c2,0,3.698-1.635,3.698-3.633V41.696   C94,39.697,92.302,38,90.302,38z M70.19,87.726c-1.121,1.122-12.488,1.281-25.527,1.281c-14.248,0-28.089-0.214-29.156-1.281   c-1.068-1.068-2.243-10.086-2.243-20.078c0-10.244,1.015-19.172,2.243-20.4c1.228-1.228,15.808-1.815,29.37-1.815   c13.776,0,24.298,0.801,25.313,1.815c1.014,1.016,2.027,9.801,2.027,19.759C72.218,77.282,71.312,86.604,70.19,87.726z M88,86.408   C88,87.074,87.589,88,86.921,88h-6.229C80.026,88,79,87.074,79,86.408V48.672C79,48.006,80.026,47,80.692,47h6.229   C87.589,47,88,48.006,88,48.672V86.408z"
   id="path3115" />
	<circle
   cx="83.808"
   cy="51.411"
   r="1.816"
   id="circle3117" />
	<circle
   cx="83.808"
   cy="56.433"
   r="1.816"
   id="circle3119" />
	<path
   d="M85.624,61.56c0,1.002-0.814,1.814-1.816,1.814c-1.004,0-1.816-0.812-1.816-1.814c0-1.005,0.812-1.816,1.816-1.816   C84.81,59.743,85.624,60.555,85.624,61.56z"
   id="path3121" />
	<circle
   cx="83.807"
   cy="71.455"
   r="3.222"
   id="circle3123" />
	<circle
   cx="83.807"
   cy="82.208"
   r="3.222"
   id="circle3125" />
	<path
   d="M52.484,30.744c-0.288-0.072-0.578-0.135-0.871-0.191c-0.972-0.184-1.974-0.281-2.998-0.281   c-1.208,0-2.384,0.135-3.515,0.388c-0.295,0.067-0.586,0.141-0.875,0.224c-4.354,1.238-7.952,2.138-9.943,6.117h28.666   C60.878,32.862,57.071,31.883,52.484,30.744z"
   id="path3127" />
	<path
   d="M26.937,1.374c-0.129-0.198-0.394-0.253-0.591-0.125c-0.198,0.128-0.254,0.393-0.126,0.591l18.006,28.289   c0.289-0.082,0.58-0.157,0.875-0.222L26.937,1.374z"
   id="path3129" />
	<path
   d="M70.718,1.162c-0.207-0.114-0.467-0.04-0.58,0.167L51.613,29.8c0.293,0.055,0.583,0.119,0.871,0.19L70.884,1.743   C70.997,1.536,70.923,1.277,70.718,1.162z"
   id="path3131" />
</g>
<path
   style="fill:#ffffff;fill-opacity:1"
   d="m 35.115675,36.207627 c 1.097443,-2.035831 3.585349,-3.486101 8.150548,-4.751183 4.917177,-1.362619 9.325899,-0.993647 14.468962,1.210927 1.809402,0.775601 4.552951,3.120054 4.552951,3.890647 0,0.231012 -5.643745,0.391135 -13.786095,0.391135 -12.999406,0 -13.763285,-0.04232 -13.386366,-0.741526 z"
   id="path3139"
   inkscape:connector-curvature="0" /><path
   style="fill:#ffffff;fill-opacity:1"
   d=""
   id="path3141"
   inkscape:connector-curvature="0" /><path
   style="fill:#ffffff;fill-opacity:1"
   d="M 35.278859,15.957982 C 30.35668,8.20833 26.329442,1.7451369 26.329442,1.5953312 c 0,-0.95971416 0.569899,-0.1258982 9.552369,13.9760298 4.991673,7.836622 9.05747,14.266703 9.035105,14.289068 -0.02237,0.02237 -0.186459,0.07378 -0.364653,0.114248 -0.307078,0.06974 -0.791092,-0.661842 -9.273404,-14.016695 l 0,0 z"
   id="path3143"
   inkscape:connector-curvature="0" /><path
   style="fill:#ffffff;fill-opacity:1"
   d="m 52.042802,29.832772 c -0.124838,-0.03262 -0.226978,-0.09102 -0.226978,-0.129772 0,-0.100157 18.281455,-28.2118044 18.490924,-28.4337519 0.144187,-0.1527767 0.207667,-0.1547218 0.380064,-0.011645 0.11383,0.094471 0.172971,0.2603509 0.131424,0.3686222 -0.135473,0.3530385 -18.380974,28.2963881 -18.465908,28.2809091 -0.0454,-0.0083 -0.184689,-0.04174 -0.309526,-0.07436 z"
   id="path3145"
   inkscape:connector-curvature="0" /><path
   style="fill:#ffffff;fill-opacity:1"
   d="M 9.0588516,96.843488 C 7.9059899,96.614096 6.9816362,95.894532 6.3991286,94.773022 l -0.3031494,-0.583658 0,-26.653696 0,-26.653697 0.2939719,-0.596609 c 0.3546624,-0.719779 1.0768567,-1.469037 1.7812551,-1.848006 l 0.5188068,-0.27912 41.309987,0 41.309987,0 0.543931,0.29074 c 0.710746,0.379905 1.386273,1.085628 1.754409,1.832829 l 0.295694,0.600166 0,26.653697 0,26.653696 -0.302911,0.583658 c -0.42501,0.818924 -1.112854,1.489333 -1.888088,1.840234 l -0.662438,0.299844 -40.72633,0.01883 C 27.924773,96.942275 9.3553419,96.902482 9.0588516,96.843488 l 0,0 z M 58.236057,88.935079 c 7.163359,-0.18599 10.610077,-0.475626 11.675301,-0.981109 0.48583,-0.230541 0.616505,-0.480814 0.960001,-1.838631 C 71.35703,84.19552 71.750767,80.766511 72.066512,75.706874 72.304901,71.886853 72.268249,61.92407 72.001719,58.094853 71.583322,52.083759 70.932162,48.03831 70.258821,47.266766 69.198235,46.051501 56.174719,45.227788 40.920882,45.411196 25.827167,45.59268 17.587949,46.134081 15.667347,47.070614 c -0.969603,0.472803 -1.763849,4.911057 -2.258066,12.618102 -0.198826,3.100571 -0.199881,12.217118 -0.0018,15.304799 0.417179,6.502066 1.17348,11.458187 1.923094,12.602242 0.108843,0.166116 0.427341,0.362709 0.711644,0.439264 1.590521,0.428283 5.965706,0.727844 13.010931,0.890835 6.434891,0.148873 23.595407,0.154296 29.182879,0.0092 l 0,10e-7 z m 29.469614,-1.412106 0.296923,-0.440712 -4.85e-4,-19.533348 -4.85e-4,-19.533349 -0.27524,-0.453956 c -0.151383,-0.249675 -0.340854,-0.496836 -0.421045,-0.549246 -0.08019,-0.05241 -1.664358,-0.09618 -3.520368,-0.09728 l -3.37456,-0.002 -0.470809,0.319923 c -0.258944,0.175957 -0.593505,0.51845 -0.743467,0.761094 l -0.272659,0.441171 0,19.122916 0,19.122917 0.321608,0.435915 c 0.682136,0.924584 0.636431,0.91585 4.601961,0.879392 l 3.561702,-0.03274 0.296924,-0.440711 z"
   id="path3147"
   inkscape:connector-curvature="0" /><path
   style="fill:#ffffff;fill-opacity:1"
   d="m 83.128202,53.013119 c -0.385613,-0.155997 -0.925442,-0.838507 -1.026254,-1.297501 -0.189503,-0.862801 0.505627,-1.849838 1.424116,-2.022147 0.88714,-0.166429 2.012198,0.762542 2.012198,1.661491 0,1.23077 -1.283556,2.113876 -2.41006,1.658157 z"
   id="path3149"
   inkscape:connector-curvature="0" /><path
   style="fill:#ffffff;fill-opacity:1"
   d="m 83.12778,58.012787 c -1.281395,-0.55792 -1.390157,-2.229195 -0.196796,-3.024046 1.171362,-0.780198 2.712834,0.197828 2.565323,1.627636 -0.06176,0.598675 -0.415802,1.083321 -1.021643,1.398541 -0.432621,0.225092 -0.826443,0.224469 -1.346884,-0.0021 l 0,0 z"
   id="path3151"
   inkscape:connector-curvature="0" /><path
   style="fill:#ffffff;fill-opacity:1"
   d="m 82.866483,62.993553 c -0.508596,-0.325893 -0.892439,-1.145225 -0.785953,-1.677656 0.179472,-0.897357 0.887297,-1.468252 1.804717,-1.455591 1.277898,0.01764 2.069999,1.477574 1.398862,2.578274 -0.487564,0.799632 -1.627447,1.061296 -2.417626,0.554973 z"
   id="path3153"
   inkscape:connector-curvature="0" /><path
   style="fill:#ffffff;fill-opacity:1"
   d="m 83.245966,74.522186 c -0.709659,-0.125091 -1.183284,-0.382102 -1.680467,-0.911898 -0.503866,-0.536917 -0.651803,-0.821719 -0.822516,-1.583476 -0.524938,-2.342378 2.020307,-4.41174 4.247725,-3.453531 1.243437,0.534912 2.067814,1.837531 1.947995,3.078074 -0.181487,1.879015 -1.870435,3.192048 -3.692737,2.870831 z"
   id="path3155"
   inkscape:connector-curvature="0" /><path
   style="fill:#ffffff;fill-opacity:1"
   d="m 82.609894,85.120826 c -1.634139,-0.711561 -2.384501,-2.714518 -1.603085,-4.279151 0.948654,-1.899496 3.412887,-2.335587 4.969388,-0.879425 0.527231,0.493244 0.986249,1.530991 0.986249,2.229708 0,1.132003 -0.903326,2.466297 -1.97125,2.911715 -0.587106,0.244874 -1.837641,0.253882 -2.381302,0.01715 z"
   id="path3157"
   inkscape:connector-curvature="0" /><path
   style="fill:#ffffff;fill-opacity:1"
   d="M 44.436785,29.900257 C 44.136279,29.778237 40.513538,24.179111 32.28431,11.118002 27.265437,3.1522435 26.400754,1.7335264 26.406135,1.4734657 c 0.01213,-0.58637125 2.527461,3.2340708 13.185746,20.0273423 5.06585,7.98179 5.277858,8.32813 5.133773,8.386605 -0.147188,0.05974 -0.170799,0.06079 -0.288869,0.01284 z"
   id="path3313"
   inkscape:connector-curvature="0" /><path
   style="fill:#ffffff;fill-opacity:1"
   d="M 44.436785,29.900257 C 44.198593,29.80354 42.775183,27.648783 38.126109,20.347162 32.867915,12.088888 27.312609,3.2329603 26.636844,2.0316811 26.508329,1.8032243 26.404509,1.5520274 26.406135,1.4734657 c 0.01206,-0.5830422 2.42838,3.0814667 12.739473,19.3202693 5.319596,8.37776 5.723176,9.035482 5.579923,9.093678 -0.147043,0.05974 -0.170673,0.06079 -0.288746,0.01284 z"
   id="path3317"
   inkscape:connector-curvature="0" /><path
   style="fill:#ffffff;fill-opacity:1"
   d="M 44.258964,29.717573 C 43.723274,29.144115 39.763645,22.99603 32.208141,11.006359 27.385297,3.3530873 26.403179,1.7410173 26.403179,1.4779644 c 0,-0.3770953 0.728982,0.6134668 2.958923,4.0206699 2.265828,3.4620382 10.986991,17.1449557 14.184284,22.2541847 1.081014,1.727447 1.282797,2.09266 1.179378,2.134594 -0.206227,0.08362 -0.242287,0.0705 -0.4668,-0.16984 l 0,0 z"
   id="path3319"
   inkscape:connector-curvature="0" /><path
   style="fill:#ffffff;fill-opacity:1"
   d="M 44.26289,29.721776 C 43.719883,29.140485 39.738131,22.958861 32.207782,11.006359 27.253278,3.1423516 26.400531,1.741007 26.406135,1.4723312 c 0.0061,-0.2930048 0.706459,0.6287739 2.267411,2.9843011 2.460327,3.7127135 10.503893,16.3245377 15.783485,24.7475467 0.341035,0.544084 0.378867,0.639726 0.270257,0.683234 -0.208042,0.08334 -0.243697,0.07062 -0.464398,-0.165637 z"
   id="path3321"
   inkscape:connector-curvature="0" /><path
   style="fill:#ffffff;fill-opacity:1"
   d="m 52.069199,29.777645 -0.197958,-0.08968 1.269491,-1.972361 C 56.299709,22.807619 66.717925,6.79469 69.302332,2.8750222 69.902876,1.9642008 70.43954,1.2189833 70.494919,1.2189833 c 0.14918,0 0.29046,0.2029188 0.249729,0.3586787 -0.0619,0.2366903 -5.60025,8.79127 -12.633497,19.513788 -4.993567,7.612929 -5.766623,8.781628 -5.80678,8.778641 -0.02047,-0.0015 -0.126295,-0.04312 -0.235172,-0.09245 z"
   id="path3323"
   inkscape:connector-curvature="0" /><path
   style="fill:#ffffff;fill-opacity:1"
   d="m 52.069199,29.777645 -0.197958,-0.08968 1.269006,-1.972361 C 56.179736,22.991461 66.555821,7.0416057 69.300143,2.8750222 c 0.599914,-0.9108214 1.136812,-1.6560389 1.193108,-1.6560389 0.150708,0 0.292313,0.2022129 0.251336,0.3589095 -0.04609,0.1762663 -1.490651,2.4311382 -5.825663,9.0935372 -6.697501,10.293261 -12.551652,19.202882 -12.614553,19.198491 -0.02047,-0.0014 -0.126295,-0.04295 -0.235172,-0.09228 z"
   id="path3325"
   inkscape:connector-curvature="0" /><path
   style="fill:#ffffff;fill-opacity:1"
   d="m 52.065975,29.777645 -0.201183,-0.08968 1.271183,-1.972361 C 56.437584,22.592843 66.579324,7.0029178 69.150306,3.0983083 c 0.68059,-1.0336287 1.284207,-1.879325 1.34137,-1.879325 0.153073,0 0.293966,0.2019163 0.252238,0.3614859 -0.05939,0.2270878 -3.589209,5.6929744 -10.749507,16.6454748 -5.437436,8.317184 -7.63542,11.644965 -7.690036,11.642832 -0.02047,-7.98e-4 -0.127746,-0.04181 -0.238396,-0.09113 z"
   id="path3327"
   inkscape:connector-curvature="0" /><path
   style="fill:#ffffff;fill-opacity:1"
   d="m 52.064593,29.777645 -0.202564,-0.08968 1.200167,-1.860718 C 56.79106,22.046084 66.37675,7.3109924 69.152635,3.0930769 70.412979,1.1780034 70.516076,1.0656762 70.7175,1.388112 c 0.06488,0.1038518 0.046,0.1954279 -0.08872,0.4304754 -0.841427,1.4679754 -18.211423,28.0579986 -18.324404,28.0510316 -0.02047,-0.0013 -0.128368,-0.04265 -0.239778,-0.09197 z"
   id="path3329"
   inkscape:connector-curvature="0" /><path
   style="fill:#ffffff;fill-opacity:1"
   d="m 52.064713,29.777645 -0.202443,-0.08968 1.198295,-1.860718 C 56.294106,22.806191 66.38533,7.2925056 69.073436,3.2099514 c 0.721011,-1.0950325 1.358458,-1.9909681 1.41655,-1.9909681 0.155205,0 0.295781,0.2014379 0.253475,0.3632156 -0.09971,0.3813006 -18.293868,28.2921071 -18.43909,28.2865491 -0.02047,-7.84e-4 -0.128314,-0.04178 -0.239658,-0.0911 z"
   id="path3331"
   inkscape:connector-curvature="0" /><path
   style="fill:#ffffff;fill-opacity:1"
   d="m 52.062503,29.777645 -0.204654,-0.08968 1.127378,-1.749075 C 56.475948,22.523201 66.472674,7.1567742 69.100526,3.1673259 70.413458,1.1741118 70.514418,1.0630219 70.7175,1.388112 c 0.0651,0.1042053 0.04451,0.198009 -0.09799,0.4465722 C 69.746316,3.3577809 52.42339,29.873055 52.304371,29.868689 c -0.02047,-7.51e-4 -0.129308,-0.04172 -0.241868,-0.09104 z"
   id="path3333"
   inkscape:connector-curvature="0" /><path
   style="fill:#ffffff;fill-opacity:1"
   d="m 52.063328,29.777645 -0.203829,-0.08968 1.036236,-1.611836 C 55.936574,23.346192 66.280806,7.4439383 69.026009,3.2789582 70.414869,1.1718013 70.513497,1.0615484 70.7175,1.388112 c 0.0651,0.1042049 0.04452,0.1980099 -0.09798,0.4465722 -0.896324,1.5634924 -18.192941,28.0384878 -18.315148,28.0340048 -0.02047,-7.51e-4 -0.128937,-0.04172 -0.241043,-0.09104 z"
   id="path3335"
   inkscape:connector-curvature="0" /><path
   style="fill:#ffffff;fill-opacity:1"
   d="M 52.026615,29.776469 C 51.828719,29.666516 51.287166,30.542545 56.981509,21.761308 66.883847,6.490927 70.349097,1.2189833 70.483983,1.2189833 c 0.137065,0 0.278709,0.1529523 0.278709,0.30096 0,0.1915333 -5.141059,8.151443 -13.07327,20.2413647 -4.534562,6.911377 -5.335371,8.108854 -5.422265,8.1081 -0.04094,-3.72e-4 -0.14918,-0.04218 -0.240542,-0.09294 z"
   id="path3337"
   inkscape:connector-curvature="0" /><path
   style="fill:#ffffff;fill-opacity:1"
   d="m 52.019116,29.795015 -0.173611,-0.06959 0.170169,-0.279232 C 52.779202,28.19332 67.671066,5.2924285 69.584623,2.4284499 c 0.444456,-0.6652066 0.851152,-1.2094666 0.903771,-1.2094666 0.1336,0 0.274298,0.1550065 0.274298,0.3021924 0,0.1919198 -5.056797,8.0232025 -12.94926,20.0540603 -4.534423,6.912038 -5.459595,8.295237 -5.546275,8.292078 -0.04094,-0.0015 -0.152554,-0.03403 -0.248041,-0.0723 l 0,0 z"
   id="path3339"
   inkscape:connector-curvature="0" /><path
   style="fill:#ffffff;fill-opacity:1"
   d="m 52.022006,29.796085 c -0.143007,-0.05739 -0.157787,-0.09269 -0.09104,-0.217398 C 52.190998,29.092806 67.41095,5.682956 69.510148,2.540093 69.99547,1.8134827 70.438239,1.2189833 70.49408,1.2189833 c 0.192886,0 0.30344,0.2178239 0.220237,0.4339319 -0.133675,0.3471989 -5.759882,9.0371188 -12.826237,19.8106778 -4.475479,6.823438 -5.534558,8.406842 -5.620923,8.403709 -0.04094,-0.0015 -0.151254,-0.03353 -0.245151,-0.07122 z"
   id="path3341"
   inkscape:connector-curvature="0" /><path
   style="fill:#ffffff;fill-opacity:1"
   d="m 52.022006,29.796085 c -0.143912,-0.05776 -0.158034,-0.09223 -0.08993,-0.219479 0.243355,-0.454714 13.618734,-21.0392476 16.866482,-25.9572967 0.871811,-1.3201793 1.6302,-2.400326 1.685308,-2.400326 0.137136,0 0.278825,0.1528915 0.278825,0.3008699 0,0.1969001 -4.513714,7.192921 -12.651273,19.6088108 -4.429841,6.758836 -5.758261,8.745558 -5.844262,8.740401 -0.04094,-0.0025 -0.151254,-0.03529 -0.245151,-0.07298 z"
   id="path3343"
   inkscape:connector-curvature="0" /><path
   style="fill:#ffffff;fill-opacity:1"
   d="m 52.022006,29.796085 c -0.148088,-0.05943 -0.159272,-0.08991 -0.08436,-0.22989 0.0475,-0.08875 1.617506,-2.525901 3.488903,-5.415882 C 66.486143,7.0710857 70.331375,1.2189833 70.494006,1.2189833 c 0.193072,0 0.303548,0.2177784 0.220128,0.4339319 -0.15703,0.4068898 -8.951404,13.9611378 -15.485602,23.8670428 -2.684403,4.06958 -2.874739,4.34895 -2.961375,4.346634 -0.04094,-0.0011 -0.151254,-0.03282 -0.245151,-0.07051 z"
   id="path3345"
   inkscape:connector-curvature="0" /><path
   style="fill:#ffffff;fill-opacity:1"
   d="M 52.022006,29.796085 C 51.875294,29.737203 51.86316,29.705376 51.93573,29.56978 52.215036,29.047892 67.168019,6.0474797 69.435636,2.651736 c 0.526222,-0.788014 1.002488,-1.4327527 1.05837,-1.4327527 0.193094,0 0.303552,0.217776 0.220094,0.4339319 -0.185046,0.4792682 -14.889399,23.0796518 -18.008447,27.6787288 -0.37937,0.559387 -0.404513,0.576468 -0.683647,0.464441 z"
   id="path3347"
   inkscape:connector-curvature="0" /><path
   style="fill:#ffffff;fill-opacity:1"
   d="m 52.022006,29.796085 c -0.15065,-0.06046 -0.160126,-0.08835 -0.08059,-0.237176 0.169789,-0.317731 7.536984,-11.684345 12.941281,-19.9666955 4.483243,-6.8707879 5.489056,-8.3732302 5.605477,-8.3732302 0.132344,0 0.274523,0.1543626 0.274523,0.2980471 0,0.1275442 -0.176927,0.4155818 -2.034232,3.3117455 -3.212894,5.0099805 -15.1707,23.2972901 -16.168047,24.7261151 -0.232048,0.332438 -0.269384,0.349163 -0.538407,0.241194 l 0,0 z"
   id="path3349"
   inkscape:connector-curvature="0" /><path
   style="fill:#ffffff;fill-opacity:1"
   d="M 52.022006,29.796085 C 51.806887,29.709749 51.677724,29.94247 53.563898,27.01796 62.531795,13.113243 70.332471,1.2189833 70.483779,1.2189833 c 0.138174,0 0.278913,0.1532032 0.278913,0.3036135 0,0.1892441 -2.630278,4.2828701 -10.11071,15.7357742 -3.193353,4.889178 -7.932236,12.092388 -8.1691,12.417218 -0.153635,0.210691 -0.203594,0.223753 -0.460876,0.120496 z"
   id="path3351"
   inkscape:connector-curvature="0" /><path
   style="fill:#ffffff;fill-opacity:1"
   d="M 52.022006,29.796085 C 51.8714,29.73564 51.86189,29.707695 51.941299,29.558909 52.225698,29.026039 65.044967,9.2952593 68.649424,3.8425954 c 0.953879,-1.4429866 1.781993,-2.6236121 1.840255,-2.6236121 0.196192,0 0.308472,0.2159357 0.22563,0.4339319 -0.125719,0.3308261 -3.532406,5.6124045 -10.497789,16.2753138 -2.714337,4.155224 -7.512717,11.443498 -7.730471,11.741835 -0.157867,0.21629 -0.206969,0.229596 -0.465043,0.126021 z"
   id="path3353"
   inkscape:connector-curvature="0" /><path
   style="fill:#ffffff;fill-opacity:1"
   d="m 51.987557,29.793372 c -0.108609,-0.06325 -0.116038,-0.103816 -0.04388,-0.23963 0.296696,-0.558445 14.740943,-22.78067 17.265699,-26.5629801 0.650481,-0.9744783 1.225892,-1.7717786 1.27869,-1.7717786 0.133579,0 0.274627,0.154746 0.274627,0.3012968 0,0.1807732 -1.06148,1.845878 -6.664052,10.4536519 -8.615096,13.236207 -11.706082,17.900743 -11.860126,17.897842 -0.06612,-0.0012 -0.179048,-0.03653 -0.250957,-0.0784 z"
   id="path3355"
   inkscape:connector-curvature="0" /><path
   style="fill:#ffffff;fill-opacity:1"
   d="m 51.979649,29.779062 c -0.153094,-0.111946 -0.36372,0.227872 4.738897,-7.64561 C 65.483238,8.6092856 70.286337,1.3001687 70.450217,1.2372821 c 0.0554,-0.02126 0.155672,0.016286 0.22282,0.083434 0.09763,0.097634 0.106484,0.1630326 0.04418,0.3264997 -0.136521,0.3582176 -3.695162,5.8736035 -11.105134,17.211372 -5.473932,8.375492 -7.242102,11.01545 -7.377845,11.01545 -0.06859,0 -0.183155,-0.04274 -0.254593,-0.09498 z"
   id="path3357"
   inkscape:connector-curvature="0" /><path
   style="fill:#ffffff;fill-opacity:1"
   d="M 27.310052,3.4947266 C 26.713732,2.5568896 26.211927,1.73406 26.19493,1.6662163 c -0.01821,-0.072696 0.0018,-0.1665548 0.04867,-0.2285546 0.07646,-0.1010861 0.07964,-0.098676 0.08125,0.061603 0.0019,0.1937331 0.208164,0.5624343 1.327769,2.3739168 0.434535,0.703061 0.77917,1.289185 0.765857,1.3024979 -0.01331,0.013313 -0.512103,-0.7431159 -1.108423,-1.6809529 z"
   id="path3359"
   inkscape:connector-curvature="0" /><path
   style="fill:#ffffff;fill-opacity:1"
   d="m 28.140767,3.4763501 c -0.895626,-1.34521 -1.495983,-2.1122161 -1.709042,-2.1834442 -0.05241,-0.017519 -0.03019,-0.039336 0.06613,-0.064962 0.09633,-0.025626 0.185004,-0.012397 0.26404,0.03939 0.121933,0.079893 1.856891,2.7612095 1.814247,2.8038536 -0.01299,0.01299 -0.208911,-0.2546865 -0.435379,-0.5948366 z"
   id="path3361"
   inkscape:connector-curvature="0" /><path
   style="fill:#ffffff;fill-opacity:1"
   d=""
   id="path3363"
   inkscape:connector-curvature="0" /><path
   style="fill:#ffffff;fill-opacity:1"
   d="m 44.087112,29.861224 c -0.08027,-0.125833 -0.315115,-0.494065 -0.521881,-0.818293 -0.206766,-0.324228 -0.367713,-0.597731 -0.35766,-0.607784 0.01005,-0.01005 0.17524,0.207163 0.367082,0.482702 0.509165,0.731306 0.725288,0.991879 0.877651,1.058155 0.07452,0.03242 0.113869,0.05969 0.08743,0.06061 -0.02643,9.2e-4 -0.106252,0.01331 -0.177373,0.02753 -0.119624,0.02392 -0.140245,0.0087 -0.275254,-0.202926 z"
   id="path3365"
   inkscape:connector-curvature="0" /><path
   style="fill:#ffffff;fill-opacity:1"
   d="m 44.91889,29.874286 c 0.0059,-0.01971 -0.168833,-0.328822 -0.388239,-0.686913 -0.219406,-0.358091 -0.390343,-0.659652 -0.379859,-0.670135 0.01048,-0.01048 0.222896,0.298628 0.472029,0.686913 0.369474,0.575844 0.437524,0.705973 0.369179,0.705973 -0.04608,0 -0.07898,-0.01613 -0.07311,-0.03584 z"
   id="path3367"
   inkscape:connector-curvature="0" /><path
   style="fill:#ffffff;fill-opacity:1"
   d="m 43.142397,28.386398 c -0.01567,-0.01566 -0.02848,-0.04835 -0.02848,-0.07263 0,-0.02677 0.0199,-0.02425 0.05055,0.0064 0.02781,0.02781 0.04062,0.06049 0.02848,0.07263 -0.01214,0.01214 -0.03489,0.0093 -0.05055,-0.0064 z"
   id="path3369"
   inkscape:connector-curvature="0" /><path
   style="fill:#ffffff;fill-opacity:1"
   d=""
   id="path3371"
   inkscape:connector-curvature="0" /><path
   style="fill:#ffffff;fill-opacity:1"
   d="m 52.763608,29.344067 c 0.229758,-0.334828 0.808098,-1.200601 1.285201,-1.92394 0.477102,-0.723339 0.876925,-1.305696 0.888496,-1.294125 0.01157,0.01157 -0.534061,0.876211 -1.212515,1.921424 -0.80976,1.247504 -1.258522,1.901252 -1.306237,1.902904 -0.05133,0.0018 0.05007,-0.176384 0.345055,-0.606263 z"
   id="path3373"
   inkscape:connector-curvature="0" /><path
   style="fill:#ffffff;fill-opacity:1"
   d=""
   id="path3375"
   inkscape:connector-curvature="0" /><path
   style="fill:#ffffff;fill-opacity:1"
   d=""
   id="path3377"
   inkscape:connector-curvature="0" /><path
   style="fill:#ffffff;fill-opacity:1"
   d="m 52.010625,29.804676 c -0.07636,-0.03372 -0.138845,-0.08265 -0.138845,-0.108738 0,-0.06916 1.348474,-2.170592 5.460957,-8.510231 C 64.33509,10.39116 70.136292,1.5211689 70.340108,1.2975397 c 0.04818,-0.052868 0.123578,-0.096123 0.167544,-0.096123 0.112425,0 0.28966,0.1901451 0.28966,0.3107599 0,0.05557 -0.21776,0.4457421 -0.483912,0.867048 C 68.085698,5.9055752 56.106176,24.262572 53.336832,28.393518 52.281973,29.96702 52.310214,29.93697 52.010625,29.804676 z"
   id="path3379"
   inkscape:connector-curvature="0" /><path
   style="fill:#ffffff;fill-opacity:1"
   d=""
   id="path3381"
   inkscape:connector-curvature="0" /><path
   style="fill:#ffffff;fill-opacity:1"
   d=""
   id="path3383"
   inkscape:connector-curvature="0" /><path
   style="fill:#ffffff;fill-opacity:1"
   d="m 51.717174,29.791987 c -0.03117,-0.02047 0.152879,-0.340304 0.529013,-0.919297 0.317249,-0.488351 0.586202,-0.878524 0.597675,-0.867051 0.01147,0.01147 -0.223708,0.400266 -0.522622,0.863986 -0.501941,0.778683 -0.537631,0.847404 -0.466944,0.899092 0.07275,0.0532 0.07244,0.05593 -0.0064,0.05531 -0.04561,-3.59e-4 -0.104439,-0.01478 -0.130731,-0.03204 z"
   id="path3385"
   inkscape:connector-curvature="0" /><path
   style="fill:#ffffff;fill-opacity:1"
   d=""
   id="path3387"
   inkscape:connector-curvature="0" /><path
   style="fill:#ffffff;fill-opacity:1"
   d=""
   id="path3389"
   inkscape:connector-curvature="0" /><path
   style="fill:#ffffff;fill-opacity:1"
   d="m 52.197102,29.859696 c -0.07218,-0.017 -0.179646,-0.05593 -0.238808,-0.08653 -0.08744,-0.04522 -0.112845,-0.04708 -0.135773,-0.01 -0.0417,0.06746 -0.07682,0.01283 -0.0487,-0.07576 0.01604,-0.05055 0.0329,-0.06269 0.04958,-0.0357 0.0154,0.02493 0.138341,-0.139235 0.314869,-0.420451 1.578349,-2.514374 15.583609,-24.0506311 17.768967,-27.3238091 0.2447,-0.3665056 0.477032,-0.6835656 0.516294,-0.7045779 0.135469,-0.072501 0.380866,0.1485816 0.380866,0.3431295 0,0.099799 -1.04249,1.7304521 -4.927121,7.7069588 C 59.721629,18.723433 52.37286,29.922885 52.333149,29.894085 c -0.0026,-0.0019 -0.06386,-0.01739 -0.136047,-0.03439 z"
   id="path3391"
   inkscape:connector-curvature="0" /><path
   style="fill:#ffffff;fill-opacity:1"
   d=""
   id="path3393"
   inkscape:connector-curvature="0" /><path
   style="fill:#ffffff;fill-opacity:1"
   d="m 52.144359,29.843485 c -0.10119,-0.02723 -0.213129,-0.06512 -0.248752,-0.08418 -0.04644,-0.02485 -0.06913,-0.02247 -0.08017,0.0084 -0.0085,0.0237 -0.02677,0.03256 -0.04066,0.01969 -0.03552,-0.03291 0.01382,-0.172723 0.05251,-0.148808 0.01746,0.01079 0.09985,-0.08656 0.183083,-0.216351 3.242781,-5.05659 10.982904,-16.973787 16.018116,-24.662532 1.835465,-2.8027478 2.31371,-3.5133245 2.393246,-3.5558907 0.139122,-0.074456 0.38266,0.141279 0.38266,0.3389749 0,0.1047146 -0.883839,1.4888604 -4.70922,7.3749309 -5.967448,9.1820429 -13.710684,20.9889919 -13.757497,20.9775429 -0.0051,-0.0013 -0.09213,-0.02457 -0.19332,-0.0518 l 0,0 z"
   id="path3395"
   inkscape:connector-curvature="0" /><path
   style="fill:#ffffff;fill-opacity:1"
   d="m 52.144359,29.843485 c -0.10119,-0.02723 -0.213129,-0.06512 -0.248752,-0.08418 -0.04644,-0.02485 -0.06913,-0.02247 -0.08017,0.0084 -0.0085,0.0237 -0.02677,0.03256 -0.04066,0.01969 -0.03631,-0.03364 0.01276,-0.167534 0.05792,-0.158045 0.02086,0.0044 0.282378,-0.374563 0.581151,-0.842103 2.673965,-4.184405 15.472114,-23.8516159 17.423881,-26.7756797 0.282833,-0.4237302 0.545635,-0.7872195 0.584005,-0.807754 0.138673,-0.074216 0.38266,0.1411842 0.38266,0.3378256 0,0.035326 -0.2002,0.3835036 -0.444888,0.7737271 -1.217629,1.9418499 -8.290612,12.810684 -14.156017,21.753115 -1.29557,1.975233 -3.852965,5.829911 -3.865792,5.826781 -0.0051,-0.0013 -0.09215,-0.02457 -0.19334,-0.0518 l 0,0 z"
   id="path3397"
   inkscape:connector-curvature="0" /><path
   style="fill:#ffffff;fill-opacity:1"
   d="m 60.568836,16.108721 c 0,-0.0523 0.106531,-0.272485 0.123583,-0.255433 0.02981,0.02981 -0.02184,0.193707 -0.07494,0.237776 -0.02675,0.0222 -0.04864,0.03015 -0.04864,0.01766 z"
   id="path3399"
   inkscape:connector-curvature="0" /><path
   style="fill:#ffffff;fill-opacity:1"
   d="m 52.144359,29.843485 c -0.10119,-0.02723 -0.213129,-0.06512 -0.248752,-0.08418 -0.04644,-0.02485 -0.06913,-0.02247 -0.08017,0.0084 -0.0085,0.0237 -0.02744,0.03188 -0.04217,0.01818 -0.03614,-0.03363 0.04975,-0.234789 0.09624,-0.225409 0.02028,0.0041 0.550227,-0.78885 1.177651,-1.762096 C 57.486509,20.91221 67.983016,4.7910148 69.803062,2.0636562 70.104925,1.6113116 70.383312,1.224402 70.4217,1.2038571 c 0.138709,-0.074234 0.382696,0.1411339 0.382696,0.3378068 0,0.105205 -0.971897,1.6291402 -4.597063,7.2081986 -5.878603,9.0470515 -13.821217,21.1566155 -13.8692,21.1454245 -0.0054,-0.0013 -0.09258,-0.02457 -0.193774,-0.0518 l 0,0 z"
   id="path3401"
   inkscape:connector-curvature="0" /><path
   style="fill:#ffffff;fill-opacity:1"
   d="m 52.085465,29.827054 c -0.114499,-0.03673 -0.235505,-0.05826 -0.2689,-0.04784 -0.0334,0.01042 -0.06072,0.0015 -0.06072,-0.01981 0,-0.06459 0.103483,-0.243493 0.140846,-0.243493 0.04059,0 0.194393,-0.233383 2.106583,-3.196512 C 58.489966,19.366818 68.042239,4.7022211 69.803054,2.0636562 70.104921,1.6113116 70.383312,1.224402 70.4217,1.2038571 c 0.138709,-0.074234 0.382696,0.1411339 0.382696,0.3378068 0,0.1239664 -1.438161,2.3631006 -7.147942,11.1289381 -6.385746,9.803599 -11.273846,17.229884 -11.337839,17.225102 -0.01373,-0.001 -0.118651,-0.03192 -0.23315,-0.06865 z"
   id="path3403"
   inkscape:connector-curvature="0" /><path
   style="fill:#ffffff;fill-opacity:1"
   d=""
   id="path3405"
   inkscape:connector-curvature="0" /><path
   style="fill:#ffffff;fill-opacity:1"
   d="m 29.759162,7.3597376 c -0.778368,-1.2219664 -1.34881,-2.1509422 -1.331455,-2.1682978 0.01736,-0.017356 0.106377,0.091774 0.207782,0.2547174 0.09758,0.1567954 0.704,1.1252632 1.347602,2.1521506 0.643601,1.0268873 1.162918,1.8743344 1.154037,1.8832151 -0.0089,0.00888 -0.628966,-0.9459224 -1.377966,-2.1217853 z"
   id="path3407"
   inkscape:connector-curvature="0" /><path
   style="fill:#ffffff;fill-opacity:1"
   d=""
   id="path3409"
   inkscape:connector-curvature="0" /><path
   style="fill:#ffffff;fill-opacity:1"
   d="M 31.455013,8.6039038 C 30.933298,7.7872685 30.066431,6.4409028 29.528641,5.6119801 28.99085,4.7830575 28.558976,4.0836467 28.568919,4.0577341 c 0.01398,-0.036429 0.02771,-0.032989 0.06054,0.015169 0.276679,0.4058605 3.803338,5.9865798 3.790959,5.9989588 -0.0093,0.0093 -0.44369,-0.6513229 -0.965404,-1.4679582 z"
   id="path3411"
   inkscape:connector-curvature="0" /><path
   style="fill:#ffffff;fill-opacity:1"
   d="m 52.074365,29.826228 c -0.111449,-0.03575 -0.22923,-0.05671 -0.261736,-0.04657 -0.116907,0.03647 -0.05085,-0.129911 0.122056,-0.307445 0.05825,-0.05981 0.667678,-0.98082 1.354285,-2.046694 C 57.729307,20.532447 68.693075,3.6994708 70.047992,1.6949329 70.326737,1.2825422 70.393817,1.2035307 70.4729,1.1944473 c 0.128179,-0.014722 0.328246,0.1817131 0.328246,0.3222878 0,0.1566747 -1.084038,1.8502052 -6.93451,10.8333819 -6.847464,10.514019 -11.479939,17.546917 -11.555293,17.542932 -0.01889,-9.99e-4 -0.125529,-0.03107 -0.236978,-0.06682 z"
   id="path3539"
   inkscape:connector-curvature="0" /><path
   style="fill:#ffffff;fill-opacity:1"
   d="m 68.369535,4.111171 c 0,-0.015885 0.419382,-0.67242 0.931958,-1.4589666 0.797074,-1.2231057 0.993068,-1.5024858 0.993068,-1.4155746 0,0.017418 -1.85394,2.8253223 -1.895824,2.8713392 -0.01606,0.017646 -0.0292,0.019087 -0.0292,0.0032 z"
   id="path3541"
   inkscape:connector-curvature="0" /><path
   style="fill:#ffffff;fill-opacity:1"
   d="m 68.782481,4.8695361 c 0.0097,-0.027862 0.297749,-0.4837893 0.640131,-1.0131713 0.342383,-0.5293819 0.800217,-1.2452039 1.01741,-1.5907156 0.457581,-0.7279219 0.47537,-0.7919426 0.275568,-0.9917452 -0.121382,-0.1213814 -0.09193,-0.16585 0.03939,-0.059476 0.102021,0.08264 0.14749,0.1858635 0.147456,0.3347526 -2.6e-5,0.1118843 -0.136174,0.3380444 -1.033135,1.7161682 -0.9789,1.5040186 -1.12907,1.7256751 -1.086818,1.6041878 z"
   id="path3543"
   inkscape:connector-curvature="0" /><path
   style="fill:#ffffff;fill-opacity:1"
   d="m 52.081945,29.828892 c -0.107281,-0.03429 -0.225062,-0.05449 -0.261736,-0.0449 -0.0425,0.01111 -0.06647,7.02e-4 -0.06611,-0.02872 7.56e-4,-0.06055 0.175462,-0.356377 0.218945,-0.370732 0.01857,-0.0061 0.02896,-0.03212 0.02307,-0.05775 -0.0059,-0.02563 0.0044,-0.03725 0.02294,-0.02581 0.03886,0.02402 0.01453,0.0606 1.895918,-2.850892 3.079534,-4.765658 8.032056,-12.38698 11.499766,-17.6967239 2.217371,-3.3952296 2.245448,-3.4390959 2.246002,-3.5090371 2.37e-4,-0.029672 0.04704,-0.1451338 0.104001,-0.2565826 0.09211,-0.1802118 0.101601,-0.1895546 0.08574,-0.084431 l -0.01783,0.1182034 0.06506,-0.084431 c 0.03578,-0.046437 0.06539,-0.1110267 0.0658,-0.1435326 4.12e-4,-0.032506 0.01975,-0.059556 0.04297,-0.060111 0.02322,-5.538e-4 0.356961,-0.4830779 0.741648,-1.0722728 1.357634,-2.0793772 1.62006,-2.4546901 1.72477,-2.466717 0.128179,-0.014722 0.328246,0.1817131 0.328246,0.3222878 0,0.1117525 -0.30741,0.6109857 -1.846184,2.998191 -2.542996,3.9451267 -8.630599,13.2825729 -13.012696,19.9594729 -1.806213,2.752085 -3.592715,5.420366 -3.627965,5.41865 -0.02052,-0.001 -0.125076,-0.02987 -0.232356,-0.06416 l 0,0 z"
   id="path3545"
   inkscape:connector-curvature="0" /><path
   style="fill:#ffffff;fill-opacity:1"
   d="M 60.71071,15.882038 C 60.702981,15.86037 67.601729,5.22758 67.657478,5.1752361 67.697616,5.1375499 67.630039,5.2901338 67.545282,5.4285682 67.21557,5.9670892 60.718609,15.904182 60.71071,15.882038 z"
   id="path3547"
   inkscape:connector-curvature="0" /><path
   style="fill:#ffffff;fill-opacity:1"
   d=""
   id="path3549"
   inkscape:connector-curvature="0" /><path
   style="fill:#ffffff;fill-opacity:1"
   d=""
   id="path3551"
   inkscape:connector-curvature="0" /><path
   style="fill:#ffffff;fill-opacity:1"
   d=""
   id="path3553"
   inkscape:connector-curvature="0" /><path
   style="fill:#ffffff;fill-opacity:1"
   d=""
   id="path3555"
   inkscape:connector-curvature="0" /><path
   style="fill:#ffffff;fill-opacity:1"
   d=""
   id="path3557"
   inkscape:connector-curvature="0" /><path
   style="fill:#ffffff;fill-opacity:1"
   d=""
   id="path3559"
   inkscape:connector-curvature="0" /><path
   style="fill:#ffffff;fill-opacity:1"
   d=""
   id="path3561"
   inkscape:connector-curvature="0" /><path
   style="fill:#ffffff;fill-opacity:1"
   d="m 67.852509,4.9346031 c -1.28e-4,-0.065766 0.03085,-0.1221388 0.264491,-0.4812444 0.199886,-0.3072289 0.233241,-0.3504318 0.254294,-0.3293782 0.02105,0.021054 0.0017,0.058294 -0.147342,0.2839191 -0.09437,0.1428279 -0.193769,0.2809656 -0.220894,0.3069728 -0.02712,0.026007 -0.04935,0.060197 -0.04939,0.075976 -4e-5,0.01578 -0.0228,0.06288 -0.05058,0.104667 -0.04006,0.060266 -0.05052,0.068349 -0.05058,0.039087 z"
   id="path3563"
   inkscape:connector-curvature="0" /><path
   style="fill:#ffffff;fill-opacity:1"
   d=""
   id="path3565"
   inkscape:connector-curvature="0" /><path
   style="fill:#ffffff;fill-opacity:1"
   d=""
   id="path3567"
   inkscape:connector-curvature="0" /><path
   style="fill:#ffffff;fill-opacity:1"
   d=""
   id="path3569"
   inkscape:connector-curvature="0" /><path
   style="fill:#ffffff;fill-opacity:1"
   d=""
   id="path3571"
   inkscape:connector-curvature="0" /><path
   style="fill:#ffffff;fill-opacity:1"
   d="m 52.498601,28.461182 c 0.0076,-0.02146 8.04128,-12.372205 8.060714,-12.392351 0.008,-0.0083 0.01096,-0.0039 0.0084,0.0128 -0.0022,0.01407 5.1e-5,0.03202 0.005,0.03988 0.005,0.008 -1.269213,1.98344 -2.909468,4.510381 -1.605144,2.472851 -3.356244,5.174226 -3.891333,6.003055 -0.535088,0.82883 -0.975331,1.50452 -0.978317,1.501534 -0.003,-0.003 0.0095,-0.03479 0.02764,-0.07068 0.07481,-0.147622 -0.02775,-0.02639 -0.210001,0.248238 -0.09521,0.143471 -0.125216,0.18269 -0.11258,0.147148 z"
   id="path3573"
   inkscape:connector-curvature="0" /><path
   style="fill:#ffffff;fill-opacity:1"
   d="m 54.238754,27.104869 c 0.0037,-0.01056 0.248323,-0.384822 0.543516,-0.831702 0.792231,-1.199323 2.817665,-4.288713 5.054247,-7.709232 1.889584,-2.889838 1.976252,-3.019896 2.015069,-3.023904 0.03206,-0.0033 0.03784,-6.3e-4 0.02758,0.0128 -0.0071,0.0093 -1.641423,2.517489 -3.631741,5.573664 -1.990319,3.056175 -3.621579,5.553864 -3.625023,5.55042 -0.0034,-0.0034 0.04852,-0.09426 0.115475,-0.201804 0.146092,-0.234665 0.206823,-0.341721 0.198549,-0.349995 -0.01225,-0.01225 -0.184105,0.229469 -0.482785,0.679064 -0.190942,0.287421 -0.22911,0.340829 -0.214887,0.300693 z"
   id="path3575"
   inkscape:connector-curvature="0" /><path
   style="fill:#ffffff;fill-opacity:1"
   d="m 51.670966,29.806384 c -0.02071,-0.0044 -0.03617,-0.01384 -0.03434,-0.02088 0.0018,-0.007 0.06997,-0.115147 0.151424,-0.240243 0.151832,-0.233176 0.210194,-0.299408 0.09625,-0.109226 -0.158278,0.26417 -0.195923,0.355775 -0.153277,0.372984 0.02236,0.009 -0.01295,0.0075 -0.06005,-0.0026 z"
   id="path3577"
   inkscape:connector-curvature="0" /><path
   style="fill:#ffffff;fill-opacity:1"
   d="m 52.28442,29.936937 c -0.04222,-0.01055 -0.163142,-0.03843 -0.268704,-0.06197 -0.105562,-0.02354 -0.173218,-0.04322 -0.150346,-0.04374 0.02744,-6.21e-4 0.04159,-0.0073 0.04159,-0.01957 0,-0.01621 0.007,-0.01614 0.05438,5.9e-4 0.07366,0.02603 0.347699,0.09481 0.377745,0.09481 0.01404,0 0.04174,-0.02446 0.06608,-0.05836 0.05005,-0.06969 0.06419,-0.06688 0.0273,0.0054 -0.01457,0.02855 -0.02648,0.06366 -0.02648,0.07801 0,0.03083 -0.01495,0.03142 -0.121556,0.0048 z"
   id="path3579"
   inkscape:connector-curvature="0" /><path
   style="fill:#ffffff;fill-opacity:1"
   d="m 52.434256,29.974738 -0.0293,-0.0056 0.03143,-0.02473 c 0.0395,-0.03107 0.130753,-0.152355 0.314882,-0.418501 0.07931,-0.114633 0.14651,-0.20611 0.149339,-0.203281 0.0069,0.0069 -0.419399,0.661701 -0.429307,0.659473 -0.0043,-9.58e-4 -0.02093,-0.0043 -0.03705,-0.0074 z"
   id="path3581"
   inkscape:connector-curvature="0" /><path
   style="fill:#ffffff;fill-opacity:1"
   d="m 52.156466,29.855898 c -0.07741,-0.02014 -0.165945,-0.04565 -0.196739,-0.0567 -0.07396,-0.02653 -0.09989,-0.02683 -0.07836,-8.93e-4 0.01353,0.0163 0.0104,0.01918 -0.02082,0.01912 -0.06017,-1.17e-4 -0.13272,-0.02506 -0.13272,-0.04563 0,-0.04532 0.172178,-0.344973 0.422223,-0.734815 0.214141,-0.333867 0.603595,-0.910554 0.610357,-0.903792 0.0036,0.0036 -0.01529,0.04294 -0.04207,0.08733 -0.0433,0.0718 -0.51226,0.816682 -0.638884,1.014787 -0.02699,0.04223 -0.03854,0.06815 -0.02568,0.05761 0.0364,-0.02982 0.224536,-0.316656 1.267303,-1.932135 1.07488,-1.665231 1.743786,-2.698136 3.179849,-4.91023 l 0.965639,-1.487459 0.387061,-7e-6 c 0.212884,-4e-6 0.387061,0.0033 0.387061,0.0074 0,0.02111 -4.81901,7.347232 -5.470156,8.316029 -0.374086,0.556577 -0.411795,0.60796 -0.445392,0.606905 -0.01535,-4.82e-4 -0.09126,-0.01735 -0.168667,-0.03749 z"
   id="path3583"
   inkscape:connector-curvature="0" /><path
   style="fill:#ffffff;fill-opacity:1"
   d="m 52.156466,29.855898 c -0.07741,-0.02014 -0.165945,-0.04565 -0.196739,-0.0567 -0.07396,-0.02653 -0.09989,-0.02683 -0.07836,-8.93e-4 0.01353,0.0163 0.0104,0.01918 -0.02082,0.01912 -0.06017,-1.17e-4 -0.13272,-0.02506 -0.13272,-0.04563 0,-0.04527 0.171474,-0.343748 0.422149,-0.734815 0.208389,-0.325098 0.60403,-0.910194 0.610856,-0.903367 0.0079,0.0079 -0.06831,0.133005 -0.425518,0.69864 -0.316593,0.501317 -0.295946,0.467303 -0.276271,0.455143 0.02897,-0.01791 0.09227,-0.115101 2.150516,-3.302121 0.318146,-0.492623 1.181124,-1.824144 1.917728,-2.958936 l 1.33928,-2.063259 0.387061,-1e-6 c 0.212884,0 0.387061,0.0034 0.387061,0.0074 0,0.02111 -4.818869,7.346959 -5.470156,8.315965 -0.374086,0.556577 -0.411795,0.60796 -0.445392,0.606905 -0.01535,-4.82e-4 -0.09126,-0.01735 -0.168667,-0.03749 z"
   id="path3585"
   inkscape:connector-curvature="0" /><path
   style="fill:#ffffff;fill-opacity:1"
   d="m 52.424702,29.907063 c 0.01847,-0.0633 0.124859,-0.226409 1.11626,-1.711304 1.141093,-1.7091 1.219259,-1.824603 1.228524,-1.815339 0.0081,0.0081 -0.02738,0.06494 -0.576862,0.922777 -0.938652,1.465399 -1.642407,2.516032 -1.748454,2.610263 l -0.0288,0.02559 0.0093,-0.03199 z"
   id="path3587"
   inkscape:connector-curvature="0" /><path
   style="fill:#ffffff;fill-opacity:1"
   d=""
   id="path3589"
   inkscape:connector-curvature="0" /><path
   style="fill:#ffffff;fill-opacity:1"
   d="m 44.315417,28.726483 c -0.118058,-0.172988 -0.157612,-0.223063 -0.168041,-0.212741 -0.0043,0.0043 0.01865,0.05804 0.05106,0.119467 0.0324,0.06143 0.05669,0.113914 0.05397,0.116632 -0.0027,0.0027 -0.410178,-0.638351 -0.905466,-1.424598 -0.495289,-0.786247 -1.601928,-2.536355 -2.459197,-3.889128 -0.85727,-1.352773 -1.558672,-2.462615 -1.558672,-2.466315 0,-0.0037 0.01583,-0.0066 0.03519,-0.0065 0.03282,2.16e-4 0.204122,0.265665 2.547763,3.948039 1.381916,2.171294 2.510082,3.9503 2.507036,3.953346 -0.003,0.003 -0.04968,-0.05915 -0.10364,-0.138207 z"
   id="path3591"
   inkscape:connector-curvature="0" /><path
   style="fill:#ffffff;fill-opacity:1"
   d="m 40.761414,24.671891 c -1.290968,-2.02781 -2.349134,-3.691853 -2.35148,-3.697872 -0.0023,-0.006 0.0063,-0.01083 0.01919,-0.0107 0.01706,1.82e-4 0.248261,0.353332 0.84815,1.295535 1.55905,2.448691 3.329925,5.198182 3.80287,5.904404 0.04815,0.0719 0.08755,0.132999 0.08755,0.135776 0,0.0028 -0.01523,0.0021 -0.03384,-0.0014 -0.03116,-0.006 -0.03317,-0.0038 -0.02535,0.02736 0.0047,0.01861 0.0066,0.03383 0.0043,0.03383 -0.0023,0 -1.060432,-1.659117 -2.3514,-3.686927 l 0,0 z"
   id="path3593"
   inkscape:connector-curvature="0" /><path
   style="fill:#ffffff;fill-opacity:1"
   d="m 44.525787,30.008972 c -0.02941,-0.02447 -0.0295,-0.02514 -0.0033,-0.02514 0.03059,0 0.185696,-0.04004 0.308018,-0.07952 0.05796,-0.01871 0.084,-0.02226 0.08743,-0.01195 0.0027,0.0081 0.01559,0.01469 0.02867,0.01469 0.01307,0 0.02673,0.0048 0.03034,0.01063 0.0036,0.0058 -0.08385,0.03231 -0.194375,0.0588 -0.11052,0.02649 -0.206704,0.05029 -0.213741,0.05289 -0.007,0.0026 -0.02639,-0.0066 -0.043,-0.02042 z"
   id="path3595"
   inkscape:connector-curvature="0" /><path
   style="fill:#ffffff;fill-opacity:1"
   d=""
   id="path3597"
   inkscape:connector-curvature="0" /><path
   style="fill:#ffffff;fill-opacity:1"
   d=""
   id="path3599"
   inkscape:connector-curvature="0" /><path
   style="fill:#ffffff;fill-opacity:1"
   d="m 45.015756,29.877127 c -5.4e-4,-0.02638 -0.02412,-0.08295 -0.06178,-0.148243 -0.0335,-0.05807 -0.05828,-0.108213 -0.05507,-0.11142 0.0032,-0.0032 0.04695,0.05909 0.09721,0.138431 0.07948,0.125468 0.08843,0.145428 0.06874,0.153213 -0.04074,0.01611 -0.04822,0.01124 -0.0491,-0.03198 l 0,0 z"
   id="path3601"
   inkscape:connector-curvature="0" /><path
   style="fill:#ffffff;fill-opacity:1"
   d="m 45.023027,29.895867 c 0,-0.0062 -0.0034,-0.03063 -0.0076,-0.05438 l -0.0076,-0.04318 0.02672,0.03839 c 0.03154,0.04532 0.03428,0.07038 0.0077,0.07038 -0.01056,0 -0.01919,-0.005 -0.01919,-0.0112 z"
   id="path3603"
   inkscape:connector-curvature="0" /><path
   style="fill:#ffffff;fill-opacity:1"
   d=""
   id="path3605"
   inkscape:connector-curvature="0" /><path
   style="fill:#ffffff;fill-opacity:1"
   d="m 43.239675,28.56443 c -0.09594,-0.151142 -0.109087,-0.175852 -0.08593,-0.161541 0.01908,0.01179 0.05234,-0.0068 0.05234,-0.02933 0,-0.0115 0.03211,0.02706 0.07136,0.08568 0.03925,0.05863 0.06885,0.109103 0.06578,0.112172 -0.0031,0.0031 -0.03012,-0.02624 -0.06012,-0.06512 -0.04984,-0.06461 -0.07702,-0.08613 -0.07702,-0.061 0,0.01371 0.05963,0.126124 0.105407,0.198714 0.02125,0.03369 0.03574,0.06416 0.0322,0.0677 -0.0035,0.0035 -0.05034,-0.06273 -0.104009,-0.147274 l 0,0 z"
   id="path3607"
   inkscape:connector-curvature="0" /><path
   style="fill:#ffffff;fill-opacity:1"
   d="m 44.191305,30.060576 c -0.04869,-0.07588 -0.04944,-0.09543 -0.0014,-0.03795 0.03324,0.03982 0.0449,0.04487 0.1171,0.0507 l 0.08018,0.0065 -0.07873,0.02028 -0.07874,0.02028 -0.03836,-0.05979 z"
   id="path3609"
   inkscape:connector-curvature="0" /><path
   style="fill:#ffffff;fill-opacity:1"
   d="m 34.300476,36.987974 c 0,-0.01482 0.171386,-0.332598 0.284415,-0.52736 1.030728,-1.776051 2.47581,-3.002959 4.648214,-3.946441 1.100728,-0.47805 2.538147,-0.943097 5.137356,-1.662084 2.04814,-0.566551 4.215517,-0.714176 6.359525,-0.43316 0.721341,0.09455 1.175223,0.188208 2.386135,0.492394 2.299814,0.577723 3.537465,0.960431 4.693986,1.45148 2.378283,1.0098 3.963993,2.415654 5.041601,4.469773 l 0.08558,0.163142 -14.318408,0 c -7.875125,0 -14.318409,-0.0035 -14.318409,-0.0077 z m 17.312185,-0.04343 c 4.808959,-0.02871 8.426141,-0.11591 9.85886,-0.237672 0.439685,-0.03737 0.712765,-0.0776 0.790117,-0.116405 0.04049,-0.02031 0.03943,-0.01467 0.02132,-0.11381 -0.111647,-0.611067 -1.658999,-2.086136 -3.271406,-3.118583 -0.546886,-0.350179 -0.930981,-0.553189 -1.493807,-0.789536 -4.201213,-1.764218 -7.898752,-2.286091 -11.778172,-1.662381 -0.951341,0.152951 -1.795865,0.347294 -2.922115,0.672441 -3.473099,1.002681 -5.675245,2.125844 -6.935207,3.537173 -0.313799,0.351497 -0.572785,0.71516 -0.751075,1.054645 -0.07869,0.149835 -0.09644,0.209901 -0.08308,0.281122 0.05802,0.309246 0.970326,0.410334 4.229797,0.468682 1.792237,0.03208 8.740039,0.04578 12.334772,0.02432 l 0,0 z"
   id="path3611"
   inkscape:connector-curvature="0" /><path
   style="fill:#ffffff;fill-opacity:1"
   d="m 39.387176,20.97672 c -0.0046,-0.0075 -0.02159,-0.01365 -0.03767,-0.01365 -0.02493,0 -0.269267,-0.377411 -1.658813,-2.56228 -1.718558,-2.702194 -4.504327,-7.073975 -5.075972,-7.965854 -0.186315,-0.290689 -0.33623,-0.5310488 -0.333145,-0.5341336 0.0031,-0.00308 0.03312,0.034663 0.06676,0.083884 0.05862,0.085794 0.08209,0.1106864 0.06681,0.070849 -0.0039,-0.01025 -0.143231,-0.2381633 -0.309546,-0.5064643 -0.166315,-0.268301 -0.299856,-0.490355 -0.296758,-0.4934533 0.0031,-0.0031 1.714123,2.6782206 3.802277,5.9584856 2.088154,3.280265 3.793912,5.96685 3.790573,5.970189 -0.0033,0.0033 -0.0099,-6.4e-5 -0.01451,-0.0076 z"
   id="path3613"
   inkscape:connector-curvature="0" /><path
   style="fill:#ffffff;fill-opacity:1"
   d="M 34.609521,15.005846 C 32.52407,11.729371 30.820302,9.0461088 30.82337,9.0430406 c 0.0031,-0.00307 0.07058,0.092511 0.150034,0.2123977 0.134242,0.2025642 0.166607,0.2458001 0.166607,0.2225716 0,-0.005 -0.02636,-0.054795 -0.05858,-0.1106505 -0.03222,-0.055856 -0.05612,-0.1040167 -0.05311,-0.1070242 0.003,-0.00301 0.145651,0.217744 0.316985,0.4905587 0.947147,1.5081341 5.721554,9.0421281 6.913791,10.9099331 0.201088,0.315032 0.194105,0.302246 0.165069,0.302246 -0.01657,0 -1.073926,-1.651248 -3.814648,-5.957227 z"
   id="path3615"
   inkscape:connector-curvature="0" /><path
   style="fill:#ffffff;fill-opacity:1"
   d="M 26.684334,2.5541226 C 26.434579,2.1615414 26.216941,1.814428 26.200694,1.7827593 c -0.04381,-0.085395 -0.04938,-0.2262403 -0.01278,-0.3232317 0.0319,-0.08454 0.121053,-0.1841423 0.201611,-0.2252397 0.166705,-0.085047 0.390315,-0.039181 0.50655,0.1039029 0.05746,0.07073 1.011305,1.5702251 1.003686,1.5778446 -0.0032,0.0032 -0.105604,-0.148274 -0.227563,-0.33661 -0.407041,-0.6285783 -0.799357,-1.2018765 -0.879921,-1.285845 -0.0834,-0.086928 -0.214406,-0.1066578 -0.349438,-0.052629 -0.0549,0.021966 -0.06139,0.034834 -0.02753,0.054557 0.02035,0.011855 0.02044,0.013078 9.29e-4,0.013431 -0.0273,4.948e-4 -0.07419,0.059417 -0.07551,0.094881 -8.53e-4,0.022846 -0.003,0.02158 -0.01386,-0.00812 -0.01671,-0.045757 -0.02625,-0.044399 -0.06743,0.0096 -0.05005,0.065616 -0.07124,0.1250525 -0.07124,0.1998137 0,0.054726 0.01044,0.085487 0.05986,0.1763478 0.0829,0.1524043 0.303836,0.5169622 0.62763,1.0356046 0.15085,0.2416262 0.271681,0.4419123 0.268513,0.4450803 -0.0032,0.00317 -0.210105,-0.3154426 -0.45986,-0.7080237 z"
   id="path3617"
   inkscape:connector-curvature="0" /><path
   style="fill:#ffffff;fill-opacity:1"
   d="m 27.365366,3.6252978 c -0.02292,-0.035722 -0.0388,-0.067829 -0.03528,-0.071348 0.0035,-0.00352 0.02515,0.02283 0.04808,0.058552 0.02292,0.035723 0.0388,0.067829 0.03528,0.071348 -0.0035,0.00352 -0.02515,-0.02283 -0.04808,-0.058552 z"
   id="path3619"
   inkscape:connector-curvature="0" /><path
   style="fill:#ffffff;fill-opacity:1"
   d=""
   id="path3621"
   inkscape:connector-curvature="0" /><path
   style="fill:#ffffff;fill-opacity:1"
   d="m 28.127027,4.821334 c -0.39228,-0.6164248 -0.710518,-1.1234902 -0.707196,-1.1268121 0.0033,-0.00332 0.176835,0.257564 0.385584,0.5797464 0.436085,0.6730491 0.582538,0.8891266 0.608056,0.8971268 0.02544,0.00798 -0.08208,-0.1888504 -0.307806,-0.5634751 -0.105801,-0.175592 -0.189696,-0.3219265 -0.186435,-0.3251878 0.006,-0.00602 0.610518,0.9612044 0.610518,0.9768642 0,0.00469 -0.02007,-0.010916 -0.04459,-0.034687 -0.04691,-0.04547 -0.06584,-0.045779 -0.05158,-8.419e-4 0.0047,0.014774 0.100497,0.179993 0.212906,0.3671524 0.112409,0.1871593 0.201996,0.342674 0.199081,0.3455883 -0.0029,0.00291 -0.326254,-0.499049 -0.718534,-1.1154737 l 0,-5e-7 z"
   id="path3623"
   inkscape:connector-curvature="0" /><path
   style="fill:#ffffff;fill-opacity:1"
   d=""
   id="path3625"
   inkscape:connector-curvature="0" /><path
   style="fill:#ffffff;fill-opacity:1"
   d=""
   id="path3627"
   inkscape:connector-curvature="0" /><path
   style="fill:#ffffff;fill-opacity:1"
   d="m 28.77205,4.4734037 c -0.05864,-0.089953 -0.261317,-0.3958949 -0.450391,-0.67987 -0.189075,-0.2839751 -0.341036,-0.5190546 -0.337692,-0.5223989 0.0033,-0.00334 0.03056,0.03035 0.06047,0.074877 0.16391,0.2439783 0.415732,0.603007 0.47137,0.672041 0.03514,0.043597 0.07603,0.1030838 0.09089,0.1321928 0.01485,0.029109 0.08465,0.1479991 0.155106,0.2642001 0.07046,0.116201 0.125578,0.2138025 0.122488,0.2168922 -0.0031,0.00309 -0.0536,-0.067981 -0.112236,-0.157934 l 0,0 z"
   id="path3629"
   inkscape:connector-curvature="0" /><path
   style="fill:#ffffff;fill-opacity:1"
   d=""
   id="path3631"
   inkscape:connector-curvature="0" /><path
   style="fill:#ffffff;fill-opacity:1"
   d="M 28.491521,3.888257 C 28.446794,3.8104854 28.335765,3.6269869 28.244789,3.4804823 28.153813,3.3339778 28.08203,3.2114583 28.085271,3.2082168 c 0.0032,-0.00324 0.116968,0.1684473 0.252726,0.3815306 0.135757,0.2130833 0.255041,0.4000555 0.265075,0.4154939 0.01657,0.025496 0.01602,0.027902 -0.006,0.026244 -0.01663,-0.00125 -0.04977,-0.04622 -0.105558,-0.1432284 z"
   id="path3633"
   inkscape:connector-curvature="0" /><path
   style="fill:#ffffff;fill-opacity:1"
   d="M 35.701912,16.609436 C 31.178759,9.491838 26.893667,2.6344648 26.411496,1.742113 c -0.07889,-0.1459976 -0.08132,-0.1266869 -0.0048,0.038292 0.104228,0.224772 0.358007,0.660857 0.86886,1.4930195 0.701219,1.142263 1.069275,1.7566327 1.058699,1.7672091 -0.01404,0.014042 -1.058256,-1.6031092 -1.587266,-2.4581611 -0.262976,-0.4250563 -0.455436,-0.7472093 -0.503962,-0.8435686 -0.05847,-0.116096 -0.05641,-0.1999358 0.0072,-0.2923515 0.02287,-0.033248 0.04707,-0.06045 0.05377,-0.06045 0.0067,0 0.01251,0.02735 0.01292,0.060778 4.05e-4,0.033428 0.0051,0.08381 0.01042,0.1119598 0.0085,0.044987 0.01047,0.038018 0.01614,-0.057579 0.0098,-0.1657813 0.04749,-0.2052357 0.142625,-0.1494488 0.362428,0.2125327 1.542839,1.9524495 5.236072,7.7179317 1.384604,2.1614957 5.058483,7.9230537 5.142235,8.0643047 0.0075,0.01266 -0.07683,0.01599 -0.404718,0.01599 l -0.414201,0 -0.343549,-0.540606 0,0 z"
   id="path3635"
   inkscape:connector-curvature="0" /><path
   style="fill:#ffffff;fill-opacity:1"
   d="m 61.797804,15.57216 c 0,-0.0044 0.691876,-1.069078 1.537501,-2.365934 1.525882,-2.340103 4.580248,-7.0374795 5.15429,-7.9268959 0.16457,-0.2549841 0.301502,-0.4613234 0.304294,-0.4585317 0.0028,0.00279 -0.0015,0.017404 -0.0096,0.032472 -0.0081,0.015068 -0.01243,0.034092 -0.0097,0.042276 0.0049,0.014596 0.0096,0.010191 0.07236,-0.067481 0.01422,-0.017594 0.02566,-0.02623 0.02542,-0.019193 -2.36e-4,0.00704 -1.570655,2.4224374 -3.48982,5.3675551 -2.437523,3.740583 -3.497014,5.356158 -3.514682,5.359398 -0.01391,0.0025 -0.03537,0.01357 -0.04768,0.02449 -0.01232,0.01092 -0.02239,0.01625 -0.02239,0.01184 z"
   id="path3637"
   inkscape:connector-curvature="0" /><path
   style="fill:#ffffff;fill-opacity:1"
   d="m 69.990778,1.5753543 c 0.01646,-0.046881 0.213593,-0.3277232 0.254026,-0.3618944 0.08768,-0.0741 0.215515,-0.1085577 0.335819,-0.090517 0.05495,0.00824 0.05881,0.011352 0.05881,0.047464 l 0,0.038646 -0.04158,-0.024991 c -0.09534,-0.057294 -0.163997,-0.045282 -0.255323,0.044671 -0.03375,0.033243 -0.06136,0.054612 -0.06136,0.047487 0,-0.00712 0.0063,-0.019214 0.01391,-0.026864 0.01002,-0.010017 0.0097,-0.016497 -0.001,-0.02315 -0.02272,-0.014044 -0.07887,0.046908 -0.18771,0.203767 -0.106321,0.1532324 -0.127777,0.1802297 -0.115541,0.1453817 z"
   id="path3639"
   inkscape:connector-curvature="0" /><path
   style="fill:#ffffff;fill-opacity:1"
   d="m 60.717285,15.822519 c 0.07202,-0.111008 0.08681,-0.131084 0.09244,-0.125455 0.0084,0.0084 -0.09024,0.160389 -0.104202,0.16053 -0.0061,6.2e-5 -7.95e-4,-0.01572 0.01176,-0.03508 z"
   id="path3641"
   inkscape:connector-curvature="0" /><path
   style="fill:#ffffff;fill-opacity:1"
   d="m 54.493335,25.547028 c 0.02925,-0.04777 1.538012,-2.373295 4.725579,-7.283785 0.920506,-1.418051 2.592349,-3.988968 3.715208,-5.713149 1.122859,-1.724181 2.042524,-3.1363963 2.0437,-3.138256 0.0012,-0.00186 0.183433,-0.00186 0.405015,0 l 0.402877,0.00338 -0.332477,0.5118163 c -1.625421,2.5021775 -6.662406,10.2135525 -8.696309,13.3136205 -0.607158,0.925428 -1.202572,1.833605 -1.323142,2.018172 l -0.219218,0.335576 -0.375309,3.03e-4 -0.37531,3.04e-4 0.02939,-0.04798 z"
   id="path3643"
   inkscape:connector-curvature="0" /><path
   style="fill:#ffffff;fill-opacity:1"
   d=""
   id="path3645"
   inkscape:connector-curvature="0" /></svg>